<svg xmlns="http://www.w3.org/2000/svg" viewBox="0 0 256 240">
<path fill="#E2761B" d="M244.7 0 141.5 76.3 160.7 31.4z"/>
<path fill="#E4761B" d="m11.3 0 102.4 77L95.8 31.4zM207.2 173.3l-27.5 42.1 58.8 16.2 16.7-57.4zM.9 174.2l16.6 57.4 58.7-16.2-27.4-42.1z"/>
<path fill="#D7C1B1" d="m72.9 104.7-8.2 12.4 58.3 2.6-2.1-62.7zM192.9 104.7l-48.7-48.8-1.6 63.8 58.4-2.6z"/>
<path fill="#233447" d="m76.2 215.4 35.3-17.1-30.4-23.8zM144.5 198.3l35.4 17.1-5-40.9z"/>
<path fill="#CD6116" d="m180 215.4-35.4-17.1 2.9 23.1-.3 9.7zM76.2 215.4l32.8 15.7-.2-9.7 2.7-23.1z"/>
<path fill="#E4761B" d="m110.1 151.9-29 8.5 20.5 10 4.9 15.2 3.6-33.7zM145.9 151.9l3.6 33.7 4.9-15.2 20.5-10z"/>
<path fill="#F6851B" d="m179.9 160.4-20.5 10-14.9 21.7 10.4 8.1 20-19.6zM76.1 160.4l5 20.2 20 19.6 10.4-8.1-14.9-21.7z"/>
</svg>
